PathFileType	4	(X/Y/Z)	OpenSim_Sub02_CSStiffKnee_Magnet.trc
DataRate	CameraRate	NumFrames	NumMarkers	Units	OrigDataRate	OrigDataStartFrame	OrigNumFrames
100	100	13	8	m	100	5169	6891
Frame#	Time	torso_imu_offset_imu	pelvis_imu_offset_imu	tibia_r_imu_offset_imu	femur_r_imu_offset_imu	tibia_l_imu_offset_imu	femur_l_imu_offset_imu	toes_r_imu_offset_imu	toes_l_imu_offset_imu
				X1	Y1	Z1	X2	Y2	Z2	X3	Y3	Z3	X4	Y4	Z4	X5	Y5	Z5	X6	Y6	Z6	X7	Y7	Z7	X8		Y8	Z8	

5169	51.68000000	-0.93023137	-0.16020048	0.11791824	-0.60491377	0.19828798	-0.67246199	-0.54358353	-0.54353331	-0.26394885	-0.85819183	-0.06280605	0.02036157	-0.51293917	0.66782939	-0.02083009	-0.50333100	0.35330000	0.23286326	-0.59717335	-0.32881404	-0.42257230	-0.69157312	-0.08904070	-0.51589148
5170	51.69000000	-0.93507765	-0.15487403	0.11973434	-0.60137676	0.19822845	-0.67687966	-0.56655766	-0.51228318	-0.27523326	-0.85113492	-0.06974286	0.01933113	-0.50005379	0.67824770	-0.02243371	-0.50263475	0.35806009	0.22601667	-0.58491246	-0.30430763	-0.45533318	-0.69928047	-0.08800107	-0.51291879
5171	51.70000000	-0.93354298	-0.15062652	0.12165939	-0.60062751	0.19597250	-0.68217611	-0.59713361	-0.47522038	-0.28368603	-0.85254945	-0.07986496	0.01632295	-0.49630805	0.67920278	-0.02965191	-0.49294984	0.35687640	0.21731331	-0.57095159	-0.29390473	-0.47418367	-0.70465188	-0.07631213	-0.50739334
5172	51.71000000	-0.93015991	-0.15756307	0.12105434	-0.59707452	0.19717180	-0.68374649	-0.62623103	-0.44756764	-0.28038152	-0.85290743	-0.08897317	0.02116778	-0.48958397	0.68282431	-0.03372076	-0.48849078	0.36772024	0.22164231	-0.55854873	-0.27456531	-0.49858303	-0.71424219	-0.07135843	-0.50242229
5173	51.72000000	-0.93149647	-0.15476668	0.11977786	-0.59617205	0.19769049	-0.68758053	-0.63591445	-0.42271282	-0.27206672	-0.84571281	-0.10454699	0.02228663	-0.48596215	0.69178201	-0.03679897	-0.48826969	0.37978516	0.21600523	-0.54794353	-0.26468105	-0.51281502	-0.72352336	-0.07272460	-0.48966095
5174	51.73000000	-0.92889829	-0.14777352	0.12394248	-0.59380697	0.19115138	-0.67723017	-0.65008023	-0.40153071	-0.26756721	-0.84515545	-0.11648735	0.02273912	-0.48098282	0.69792941	-0.04138059	-0.48141194	0.38536005	0.21098082	-0.54320549	-0.26307413	-0.52812372	-0.73443176	-0.07343884	-0.48897390
5175	51.74000000	-0.93504987	-0.14612430	0.12595767	-0.59825255	0.19045973	-0.68474839	-0.66232746	-0.39030812	-0.26420049	-0.84844568	-0.12220667	0.01926458	-0.47171466	0.70127685	-0.04400335	-0.47782403	0.39006786	0.20141173	-0.53338530	-0.26095231	-0.53381129	-0.73973867	-0.06687411	-0.46664834
5176	51.75000000	-0.93214092	-0.13756790	0.12734030	-0.59349425	0.18909243	-0.68480534	-0.67373091	-0.37624881	-0.25730753	-0.84519913	-0.13868967	0.02937786	-0.46301153	0.70179768	-0.04856005	-0.47580707	0.39689977	0.19656260	-0.52939091	-0.25782949	-0.54240095	-0.74385170	-0.06581676	-0.46106882
5177	51.76000000	-0.93026995	-0.14069196	0.12458154	-0.60082945	0.18727965	-0.68837243	-0.68270366	-0.35826964	-0.25984796	-0.84015001	-0.14610867	0.02315120	-0.45718057	0.70986752	-0.05109001	-0.47073129	0.40327387	0.19496362	-0.52388262	-0.25265308	-0.54779393	-0.75685772	-0.06922431	-0.44543023
5178	51.77000000	-0.93098244	-0.13302166	0.12657693	-0.59445920	0.19423598	-0.67997013	-0.68305457	-0.35265680	-0.25627046	-0.83455338	-0.15017954	0.02733286	-0.44872972	0.71693711	-0.05352562	-0.46516975	0.40673458	0.18740626	-0.52472301	-0.25221408	-0.54921703	-0.76394448	-0.07261544	-0.42892106
5179	51.78000000	-0.93342258	-0.13453901	0.13419260	-0.59667152	0.19050392	-0.67872841	-0.68664702	-0.35203371	-0.25750997	-0.83855448	-0.14681781	0.01616608	-0.43063850	0.72148459	-0.05740608	-0.46582098	0.41031607	0.18870571	-0.53131562	-0.24565569	-0.54913698	-0.77723559	-0.07115243	-0.41329049
5180	51.79000000	-0.93553148	-0.12515067	0.13070770	-0.59558093	0.19402754	-0.68715381	-0.68162031	-0.35226230	-0.25115367	-0.84005874	-0.15061863	0.01670292	-0.41872953	0.73606554	-0.06382285	-0.46297836	0.41798117	0.17900247	-0.54564292	-0.24639867	-0.53942108	-0.78238441	-0.07229127	-0.38628463
5181	51.80000000	-0.93543496	-0.11999185	0.12813368	-0.60129129	0.19022116	-0.68001375	-0.68010621	-0.36484284	-0.25486557	-0.83282949	-0.14528585	0.02747291	-0.40721528	0.73638944	-0.06476159	-0.45897821	0.41437998	0.17883009	-0.55318560	-0.25442466	-0.51594533	-0.78828999	-0.06952873	-0.37012939
